RobotoDelta-xopqmin.ufo
<glyph name="quotedbl" format="1">
  <advance width="639"/>
  <unicode hex="0022"/>
  <outline>
    <contour>
      <point x="114" y="963" type="line"/>
      <point x="143" y="963" type="line"/>
      <point x="158" y="1283" type="line"/>
      <point x="158" y="1456" type="line"/>
      <point x="100" y="1456" type="line"/>
      <point x="100" y="1283" type="line"/>
    </contour>
    <contour>
      <point x="495" y="963" type="line"/>
      <point x="523" y="963" type="line"/>
      <point x="539" y="1283" type="line"/>
      <point x="539" y="1456" type="line"/>
      <point x="481" y="1456" type="line"/>
      <point x="481" y="1281" type="line"/>
    </contour>
  </outline>
</glyph>
<glyph name="numbersign" format="1">
  <advance width="1364"/>
  <unicode hex="0023"/>
  <outline>
    <contour>
      <point x="171" y="0" type="line"/>
      <point x="207" y="0" type="line"/>
      <point x="691" y="1456" type="line"/>
      <point x="655" y="1456" type="line"/>
    </contour>
    <contour>
      <point x="674" y="0" type="line"/>
      <point x="710" y="0" type="line"/>
      <point x="1194" y="1456" type="line"/>
      <point x="1159" y="1456" type="line"/>
    </contour>
    <contour>
      <point x="186" y="904" type="line"/>
      <point x="1300" y="904" type="line"/>
      <point x="1300" y="1042" type="line"/>
      <point x="186" y="1042" type="line"/>
    </contour>
    <contour>
      <point x="64" y="413" type="line"/>
      <point x="1179" y="413" type="line"/>
      <point x="1179" y="551" type="line"/>
      <point x="64" y="551" type="line"/>
    </contour>
  </outline>
</glyph>
<glyph name="dollar" format="1">
  <advance width="907"/>
  <unicode hex="0024"/>
  <outline>
    <contour>
      <point x="86" y="406" type="line" smooth="yes"/>
      <point x="86" y="122"/>
      <point x="245" y="0"/>
      <point x="462" y="0" type="curve" smooth="yes"/>
      <point x="670" y="0"/>
      <point x="818" y="137"/>
      <point x="818" y="394" type="curve" smooth="yes"/>
      <point x="818" y="647"/>
      <point x="715" y="771"/>
      <point x="486" y="831" type="curve" smooth="yes"/>
      <point x="263" y="889"/>
      <point x="164" y="959"/>
      <point x="164" y="1078" type="curve" smooth="yes"/>
      <point x="164" y="1190"/>
      <point x="251" y="1298"/>
      <point x="446" y="1298" type="curve" smooth="yes"/>
      <point x="642" y="1298"/>
      <point x="738" y="1191"/>
      <point x="738" y="1057" type="curve" smooth="yes"/>
      <point x="738" y="1043" type="line"/>
      <point x="789" y="1043" type="line"/>
      <point x="789" y="1058" type="line" smooth="yes"/>
      <point x="789" y="1289"/>
      <point x="673" y="1456"/>
      <point x="452" y="1456" type="curve" smooth="yes"/>
      <point x="256" y="1456"/>
      <point x="116" y="1300"/>
      <point x="116" y="1066" type="curve" smooth="yes"/>
      <point x="116" y="839"/>
      <point x="205" y="723"/>
      <point x="425" y="661" type="curve" smooth="yes"/>
      <point x="688" y="587"/>
      <point x="771" y="522"/>
      <point x="771" y="382" type="curve" smooth="yes"/>
      <point x="771" y="246"/>
      <point x="658" y="153"/>
      <point x="453" y="153" type="curve" smooth="yes"/>
      <point x="259" y="153"/>
      <point x="137" y="241"/>
      <point x="137" y="411" type="curve" smooth="yes"/>
      <point x="137" y="418" type="line"/>
      <point x="86" y="418" type="line"/>
    </contour>
    <contour>
      <point x="430" y="744" type="line"/>
      <point x="483" y="744" type="line"/>
      <point x="483" y="1564" type="line"/>
      <point x="430" y="1564" type="line"/>
      <point x="430" y="1353" type="line"/>
      <point x="430" y="1352" type="line"/>
    </contour>
    <contour>
      <point x="430" y="-158" type="line"/>
      <point x="483" y="-158" type="line"/>
      <point x="483" y="100" type="line"/>
      <point x="483" y="100" type="line"/>
      <point x="483" y="715" type="line"/>
      <point x="430" y="715" type="line"/>
    </contour>
    <contour>
      <point x="461" y="1603" type="move" name="top"/>
    </contour>
    <contour>
      <point x="467" y="-1" type="move" name="bottom"/>
    </contour>
    <contour>
      <point x="1055" y="1600" type="move" name="top_dd"/>
    </contour>
    <contour>
      <point x="1055" y="-407" type="move" name="bottom_dd"/>
    </contour>
    <contour>
      <point x="1055" y="1603" type="move" name="top0315"/>
    </contour>
  </outline>
</glyph>
<glyph name="percent" format="1">
  <advance width="1786"/>
  <unicode hex="0025"/>
  <outline>
    <contour>
      <point x="187" y="982" type="line" smooth="yes"/>
      <point x="187" y="792"/>
      <point x="271" y="668"/>
      <point x="400" y="668" type="curve" smooth="yes"/>
      <point x="526" y="668"/>
      <point x="610" y="792"/>
      <point x="610" y="982" type="curve" smooth="yes"/>
      <point x="610" y="1169" type="line" smooth="yes"/>
      <point x="610" y="1361"/>
      <point x="526" y="1485"/>
      <point x="398" y="1485" type="curve" smooth="yes"/>
      <point x="271" y="1485"/>
      <point x="187" y="1361"/>
      <point x="187" y="1169" type="curve" smooth="yes"/>
    </contour>
    <contour>
      <point x="239" y="987" type="curve" smooth="yes"/>
      <point x="239" y="1164" type="line"/>
      <point x="239" y="1238"/>
      <point x="277" y="1325"/>
      <point x="398" y="1325" type="curve" smooth="yes"/>
      <point x="519" y="1325"/>
      <point x="558" y="1238"/>
      <point x="558" y="1164" type="curve" smooth="yes"/>
      <point x="558" y="987" type="line" smooth="yes"/>
      <point x="558" y="914"/>
      <point x="522" y="828"/>
      <point x="400" y="828" type="curve" smooth="yes"/>
      <point x="278" y="828"/>
      <point x="239" y="915"/>
    </contour>
    <contour>
      <point x="1362" y="1432" type="line"/>
      <point x="1320" y="1465" type="line"/>
      <point x="418" y="4" type="line"/>
      <point x="460" y="-29" type="line"/>
    </contour>
    <contour>
      <point x="1176" y="291" type="line" smooth="yes"/>
      <point x="1176" y="101"/>
      <point x="1262" y="-23"/>
      <point x="1389" y="-23" type="curve" smooth="yes"/>
      <point x="1515" y="-23"/>
      <point x="1599" y="101"/>
      <point x="1599" y="291" type="curve" smooth="yes"/>
      <point x="1599" y="478" type="line" smooth="yes"/>
      <point x="1599" y="670"/>
      <point x="1515" y="794"/>
      <point x="1387" y="794" type="curve" smooth="yes"/>
      <point x="1262" y="794"/>
      <point x="1176" y="670"/>
      <point x="1176" y="478" type="curve" smooth="yes"/>
    </contour>
    <contour>
      <point x="1228" y="296" type="curve" smooth="yes"/>
      <point x="1228" y="473" type="line"/>
      <point x="1228" y="547"/>
      <point x="1266" y="634"/>
      <point x="1387" y="634" type="curve" smooth="yes"/>
      <point x="1508" y="634"/>
      <point x="1547" y="547"/>
      <point x="1547" y="473" type="curve" smooth="yes"/>
      <point x="1547" y="296" type="line" smooth="yes"/>
      <point x="1547" y="223"/>
      <point x="1511" y="137"/>
      <point x="1389" y="137" type="curve" smooth="yes"/>
      <point x="1267" y="137"/>
      <point x="1228" y="224"/>
    </contour>
  </outline>
</glyph>
<glyph name="ampersand" format="1">
  <advance width="1029"/>
  <unicode hex="0026"/>
  <outline>
    <contour>
      <point x="102" y="392" type="curve" smooth="yes"/>
      <point x="102" y="135"/>
      <point x="238" y="-20"/>
      <point x="440" y="-20" type="curve"/>
      <point x="582" y="-20"/>
      <point x="712" y="92"/>
      <point x="776" y="198" type="curve" smooth="yes"/>
      <point x="779" y="203"/>
      <point x="782" y="207"/>
      <point x="795" y="229" type="curve" smooth="yes"/>
      <point x="838" y="301"/>
      <point x="884" y="445"/>
      <point x="884" y="672" type="curve"/>
      <point x="846" y="672" type="line"/>
      <point x="846" y="389"/>
      <point x="663" y="132"/>
      <point x="435" y="132" type="curve" smooth="yes"/>
      <point x="242" y="132"/>
      <point x="155" y="270"/>
      <point x="155" y="392" type="curve" smooth="yes"/>
      <point x="155" y="512"/>
      <point x="262" y="605"/>
      <point x="358" y="676" type="curve" smooth="yes"/>
      <point x="539" y="809" type="line" smooth="yes"/>
      <point x="613" y="863"/>
      <point x="687" y="1009"/>
      <point x="687" y="1169" type="curve" smooth="yes"/>
      <point x="687" y="1352"/>
      <point x="593" y="1476"/>
      <point x="454" y="1476" type="curve" smooth="yes"/>
      <point x="308" y="1476"/>
      <point x="205" y="1366"/>
      <point x="205" y="1123" type="curve" smooth="yes"/>
      <point x="205" y="955"/>
      <point x="263" y="835"/>
      <point x="401" y="668" type="curve" smooth="yes"/>
      <point x="953" y="0" type="line"/>
      <point x="1022" y="0" type="line"/>
      <point x="453" y="693" type="line" smooth="yes"/>
      <point x="320" y="855"/>
      <point x="259" y="991"/>
      <point x="259" y="1129" type="curve" smooth="yes"/>
      <point x="259" y="1212"/>
      <point x="321" y="1325"/>
      <point x="453" y="1325" type="curve" smooth="yes"/>
      <point x="556" y="1325"/>
      <point x="645" y="1253"/>
      <point x="645" y="1169" type="curve" smooth="yes"/>
      <point x="645" y="1085"/>
      <point x="600" y="1036"/>
      <point x="495" y="962" type="curve" smooth="yes"/>
      <point x="314" y="834" type="line" smooth="yes"/>
      <point x="157" y="723"/>
      <point x="102" y="591"/>
    </contour>
  </outline>
</glyph>
<glyph name="period" format="1">
  <advance width="580"/>
  <unicode hex="002E"/>
  <outline>
    <contour>
      <point x="161" y="101" type="curve" smooth="yes"/>
      <point x="161" y="32"/>
      <point x="206" y="-22"/>
      <point x="290" y="-22" type="curve" smooth="yes"/>
      <point x="374" y="-22"/>
      <point x="419" y="32"/>
      <point x="419" y="101" type="curve" smooth="yes"/>
      <point x="419" y="171"/>
      <point x="374" y="225"/>
      <point x="290" y="225" type="curve" smooth="yes"/>
      <point x="206" y="225"/>
      <point x="161" y="171"/>
    </contour>
  </outline>
</glyph>
<glyph name="zero" format="1">
  <advance width="877"/>
  <unicode hex="0030"/>
  <outline>
    <contour>
      <point x="110" y="440" type="line"/>
      <point x="110" y="128"/>
      <point x="241" y="-30"/>
      <point x="439" y="-30" type="curve" smooth="yes"/>
      <point x="635" y="-30"/>
      <point x="767" y="128"/>
      <point x="767" y="440" type="curve"/>
      <point x="767" y="1007" type="line" smooth="yes"/>
      <point x="767" y="1319"/>
      <point x="636" y="1479"/>
      <point x="437" y="1479" type="curve" smooth="yes"/>
      <point x="242" y="1479"/>
      <point x="110" y="1319"/>
      <point x="110" y="1007" type="curve" smooth="yes"/>
    </contour>
    <contour>
      <point x="166" y="428" type="curve"/>
      <point x="166" y="1019" type="line" smooth="yes"/>
      <point x="166" y="1133"/>
      <point x="224" y="1323"/>
      <point x="437" y="1323" type="curve" smooth="yes"/>
      <point x="650" y="1323"/>
      <point x="710" y="1141"/>
      <point x="710" y="1019" type="curve" smooth="yes"/>
      <point x="710" y="428" type="line"/>
      <point x="710" y="314"/>
      <point x="652" y="124"/>
      <point x="439" y="124" type="curve" smooth="yes"/>
      <point x="226" y="124"/>
      <point x="166" y="306"/>
    </contour>
  </outline>
</glyph>
<glyph name="one" format="1">
  <advance width="918"/>
  <unicode hex="0031"/>
  <outline>
    <contour>
      <point x="548" y="0" type="line"/>
      <point x="738" y="0" type="line"/>
      <point x="738" y="1476" type="line"/>
      <point x="709" y="1476" type="line"/>
      <point x="180" y="1276" type="line"/>
      <point x="180" y="1089" type="line"/>
      <point x="548" y="1245" type="line"/>
    </contour>
  </outline>
</glyph>
<glyph name="four" format="1">
  <advance width="1023"/>
  <unicode hex="0034"/>
  <outline>
    <contour>
      <point x="735" y="0" type="line"/>
      <point x="787" y="0" type="line"/>
      <point x="787" y="1466" type="line"/>
      <point x="745" y="1466" type="line"/>
      <point x="53" y="459" type="line"/>
      <point x="53" y="348" type="line"/>
      <point x="956" y="348" type="line"/>
      <point x="956" y="500" type="line"/>
      <point x="774" y="500" type="line"/>
      <point x="752" y="500" type="line"/>
      <point x="141" y="500" type="line"/>
      <point x="727" y="1352" type="line"/>
      <point x="735" y="1351" type="line"/>
      <point x="735" y="418" type="line"/>
      <point x="735" y="401" type="line"/>
    </contour>
  </outline>
</glyph>
<glyph name="eight" format="1">
  <advance width="1156"/>
  <unicode hex="0038"/>
  <outline>
    <contour>
      <point x="108" y="384" type="curve" smooth="yes"/>
      <point x="108" y="118"/>
      <point x="307.0" y="-30.0"/>
      <point x="578.0" y="-30.0" type="curve" smooth="yes"/>
      <point x="848.0" y="-30.0"/>
      <point x="1048.0" y="118.0"/>
      <point x="1048.0" y="384.0" type="curve" smooth="yes"/>
      <point x="1048.0" y="552.0"/>
      <point x="950.0" y="685.0"/>
      <point x="786.0" y="746.0" type="curve"/>
      <point x="786.0" y="750.0" type="line"/>
      <point x="916.0" y="813.0"/>
      <point x="1002.0" y="933.0"/>
      <point x="1002.0" y="1077.0" type="curve" smooth="yes"/>
      <point x="1002.0" y="1330.0"/>
      <point x="818.0" y="1478.0"/>
      <point x="577.0" y="1478.0" type="curve"/>
      <point x="337.0" y="1478.0"/>
      <point x="154.0" y="1330.0"/>
      <point x="154.0" y="1077.0" type="curve" smooth="yes"/>
      <point x="154.0" y="934.0"/>
      <point x="239" y="813"/>
      <point x="368" y="750" type="curve"/>
      <point x="368" y="747" type="line"/>
      <point x="205" y="687"/>
      <point x="108" y="553"/>
    </contour>
    <contour>
      <point x="334" y="1074" type="curve" smooth="yes"/>
      <point x="334" y="1226"/>
      <point x="432" y="1323"/>
      <point x="577" y="1323" type="curve" smooth="yes"/>
      <point x="722" y="1323"/>
      <point x="822" y="1219"/>
      <point x="822" y="1074" type="curve" smooth="yes"/>
      <point x="822" y="923"/>
      <point x="723" y="825"/>
      <point x="578" y="825" type="curve" smooth="yes"/>
      <point x="431" y="825"/>
      <point x="334" y="923"/>
    </contour>
    <contour>
      <point x="290" y="390" type="curve" smooth="yes"/>
      <point x="290" y="552"/>
      <point x="407" y="665"/>
      <point x="576" y="665" type="curve" smooth="yes"/>
      <point x="742" y="665"/>
      <point x="866" y="552"/>
      <point x="866" y="390" type="curve" smooth="yes"/>
      <point x="866" y="222"/>
      <point x="750" y="124"/>
      <point x="578" y="124" type="curve" smooth="yes"/>
      <point x="406" y="124"/>
      <point x="290" y="222"/>
    </contour>
  </outline>
</glyph>
<glyph name="nine" format="1">
  <advance width="894"/>
  <unicode hex="0039"/>
  <outline>
    <contour>
      <point x="65" y="995" type="curve" smooth="yes"/>
      <point x="65" y="723"/>
      <point x="192" y="535"/>
      <point x="445" y="535" type="curve" smooth="yes"/>
      <point x="605" y="535"/>
      <point x="729" y="695"/>
      <point x="758" y="855" type="curve"/>
      <point x="737" y="965" type="line"/>
      <point x="717" y="799"/>
      <point x="585" y="689"/>
      <point x="410" y="689" type="curve" smooth="yes"/>
      <point x="231" y="689"/>
      <point x="119" y="813"/>
      <point x="119" y="1004" type="curve" smooth="yes"/>
      <point x="119" y="1195"/>
      <point x="226" y="1326"/>
      <point x="415" y="1326" type="curve" smooth="yes"/>
      <point x="611" y="1326"/>
      <point x="741" y="1186"/>
      <point x="741" y="845" type="curve" smooth="yes"/>
      <point x="741" y="796" type="line" smooth="yes"/>
      <point x="741" y="288"/>
      <point x="515" y="127"/>
      <point x="221" y="127" type="curve" smooth="yes"/>
      <point x="195" y="127" type="line"/>
      <point x="195" y="-30" type="line"/>
      <point x="210" y="-30" type="line" smooth="yes" name="hr00"/>
      <point x="576" y="-30"/>
      <point x="797" y="263"/>
      <point x="797" y="792" type="curve" smooth="yes"/>
      <point x="797" y="821" type="line" smooth="yes"/>
      <point x="797" y="1330"/>
      <point x="606" y="1478"/>
      <point x="418" y="1478" type="curve"/>
      <point x="216" y="1478"/>
      <point x="65" y="1278"/>
    </contour>
  </outline>
</glyph>
<glyph name="A" format="1">
  <advance width="1280"/>
  <unicode hex="0041"/>
  <outline>
    <contour>
      <point x="59" y="0" type="line"/>
      <point x="115" y="0" type="line"/>
      <point x="631" y="1376" type="line" smooth="yes"/>
      <point x="634" y="1385"/>
      <point x="636" y="1392"/>
      <point x="637" y="1397" type="curve"/>
      <point x="642" y="1397" type="line"/>
      <point x="643" y="1392"/>
      <point x="643" y="1386"/>
      <point x="647" y="1376" type="curve" smooth="yes"/>
      <point x="1162" y="0" type="line"/>
      <point x="1220" y="0" type="line"/>
      <point x="666" y="1476" type="line"/>
      <point x="613" y="1476" type="line"/>
    </contour>
    <contour>
      <point x="231" y="381" type="line"/>
      <point x="1052" y="381" type="line"/>
      <point x="991" y="539" type="line"/>
      <point x="292" y="539" type="line"/>
    </contour>
    <contour>
      <point x="644.0" y="1601.0" type="move" name="top"/>
    </contour>
    <contour>
      <point x="658.0" y="0.0" type="move" name="bottom"/>
    </contour>
    <contour>
      <point x="1278.0" y="0.0" type="move" name="right"/>
    </contour>
    <contour>
      <point x="333.0" y="1454.0" type="move" name="tonos"/>
    </contour>
    <contour>
      <point x="1244.0" y="0.0" type="move" name="ogonek"/>
    </contour>
    <contour>
      <point x="1308.0" y="1600.0" type="move" name="top_dd"/>
    </contour>
    <contour>
      <point x="1308.0" y="-407.0" type="move" name="bottom_dd"/>
    </contour>
    <contour>
      <point x="1308.0" y="1601.0" type="move" name="top0315"/>
    </contour>
  </outline>
</glyph>
<glyph name="D" format="1">
  <advance width="1097"/>
  <unicode hex="0044"/>
  <outline>
    <contour>
      <point x="170" y="0" type="line"/>
      <point x="467" y="0" type="line" smooth="yes"/>
      <point x="772" y="0"/>
      <point x="982" y="244"/>
      <point x="982" y="684" type="curve" smooth="yes"/>
      <point x="982" y="771" type="line" smooth="yes"/>
      <point x="982" y="1211"/>
      <point x="769" y="1456"/>
      <point x="483" y="1456" type="curve" smooth="yes"/>
      <point x="170" y="1456" type="line"/>
    </contour>
    <contour>
      <point x="225" y="157" type="line"/>
      <point x="225" y="1298" type="line"/>
      <point x="483" y="1298" type="line" smooth="yes"/>
      <point x="766" y="1298"/>
      <point x="929" y="1087"/>
      <point x="929" y="773" type="curve" smooth="yes"/>
      <point x="929" y="684" type="line" smooth="yes"/>
      <point x="929" y="387"/>
      <point x="772" y="157"/>
      <point x="467" y="157" type="curve" smooth="yes"/>
    </contour>
    <contour>
      <point x="476" y="1612" type="move" name="top"/>
    </contour>
    <contour>
      <point x="189" y="738" type="move" name="cross"/>
    </contour>
    <contour>
      <point x="480" y="10" type="move" name="bottom"/>
    </contour>
    <contour>
      <point x="1211" y="1600" type="move" name="top_dd"/>
    </contour>
    <contour>
      <point x="1211" y="-407" type="move" name="bottom_dd"/>
    </contour>
    <contour>
      <point x="1211" y="1612" type="move" name="top0315"/>
    </contour>
  </outline>
</glyph>
<glyph name="E" format="1">
  <advance width="915"/>
  <unicode hex="0045"/>
  <outline>
    <contour>
      <point x="170" y="0" type="line"/>
      <point x="847" y="0" type="line"/>
      <point x="847" y="157" type="line"/>
      <point x="225" y="157" type="line"/>
      <point x="225" y="673" type="line"/>
      <point x="760" y="673" type="line"/>
      <point x="760" y="830" type="line"/>
      <point x="225" y="830" type="line"/>
      <point x="225" y="1298" type="line"/>
      <point x="839" y="1298" type="line"/>
      <point x="839" y="1456" type="line"/>
      <point x="170" y="1456" type="line"/>
    </contour>
    <contour>
      <point x="502" y="1612" type="move" name="top"/>
    </contour>
    <contour>
      <point x="502" y="10" type="move" name="bottom"/>
    </contour>
    <contour>
      <point x="-159" y="1455" type="move" name="tonos"/>
    </contour>
    <contour>
      <point x="905" y="0" type="move" name="ogonek"/>
    </contour>
    <contour>
      <point x="1047" y="1600" type="move" name="top_dd"/>
    </contour>
    <contour>
      <point x="1047" y="-407" type="move" name="bottom_dd"/>
    </contour>
    <contour>
      <point x="1047" y="1612" type="move" name="top0315"/>
    </contour>
  </outline>
</glyph>
<glyph name="F" format="1">
  <advance width="887"/>
  <unicode hex="0046"/>
  <outline>
    <contour>
      <point x="170" y="0" type="line"/>
      <point x="225" y="0" type="line"/>
      <point x="225" y="643" type="line"/>
      <point x="743" y="643" type="line"/>
      <point x="743" y="801" type="line"/>
      <point x="225" y="801" type="line"/>
      <point x="225" y="1298" type="line"/>
      <point x="828" y="1298" type="line"/>
      <point x="828" y="1456" type="line"/>
      <point x="170" y="1456" type="line"/>
    </contour>
    <contour>
      <point x="218" y="337" type="move" name="cross"/>
    </contour>
    <contour>
      <point x="504" y="1612" type="move" name="top"/>
    </contour>
    <contour>
      <point x="416" y="10" type="move" name="bottom"/>
    </contour>
    <contour>
      <point x="1017" y="1600" type="move" name="top_dd"/>
    </contour>
    <contour>
      <point x="1017" y="-407" type="move" name="bottom_dd"/>
    </contour>
    <contour>
      <point x="1017" y="1612" type="move" name="top0315"/>
    </contour>
  </outline>
</glyph>
<glyph name="G" format="1">
  <advance width="1080"/>
  <unicode hex="0047"/>
  <outline>
    <contour>
      <point x="115" y="672" type="line"/>
      <point x="115" y="217"/>
      <point x="323" y="-30"/>
      <point x="586" y="-30" type="curve" smooth="yes"/>
      <point x="781" y="-30"/>
      <point x="942" y="77"/>
      <point x="995" y="151" type="curve"/>
      <point x="995" y="725" type="line"/>
      <point x="637" y="725" type="line"/>
      <point x="637" y="569" type="line"/>
      <point x="942" y="569" type="line"/>
      <point x="942" y="239" type="line"/>
      <point x="893" y="193"/>
      <point x="798" y="127"/>
      <point x="587" y="127" type="curve" smooth="yes"/>
      <point x="336" y="127"/>
      <point x="173" y="357"/>
      <point x="173" y="672" type="curve" smooth="yes"/>
      <point x="173" y="787" type="line" smooth="yes"/>
      <point x="173" y="1091"/>
      <point x="314" y="1328"/>
      <point x="584" y="1328" type="curve" smooth="yes"/>
      <point x="791" y="1328"/>
      <point x="935" y="1218"/>
      <point x="935" y="1032" type="curve" smooth="yes"/>
      <point x="935" y="1030" type="line"/>
      <point x="1000" y="1030" type="line"/>
      <point x="1000" y="1033" type="line" smooth="yes"/>
      <point x="1000" y="1312"/>
      <point x="824" y="1486"/>
      <point x="584" y="1486" type="curve" smooth="yes"/>
      <point x="304" y="1486"/>
      <point x="115" y="1239"/>
      <point x="115" y="785" type="curve" smooth="yes"/>
    </contour>
    <contour>
      <point x="524" y="1633" type="move" name="top"/>
    </contour>
    <contour>
      <point x="582" y="-9" type="move" name="bottom"/>
    </contour>
    <contour>
      <point x="1247" y="1600" type="move" name="top_dd"/>
    </contour>
    <contour>
      <point x="1247" y="-407" type="move" name="bottom_dd"/>
    </contour>
    <contour>
      <point x="1247" y="1633" type="move" name="top0315"/>
    </contour>
  </outline>
</glyph>
<glyph name="H" format="1">
  <advance width="1182"/>
  <unicode hex="0048"/>
  <outline>
    <contour>
      <point x="170" y="0" type="line"/>
      <point x="224" y="0" type="line"/>
      <point x="224" y="673" type="line"/>
      <point x="958" y="673" type="line"/>
      <point x="958" y="0" type="line"/>
      <point x="1012" y="0" type="line"/>
      <point x="1012" y="1456" type="line"/>
      <point x="958" y="1456" type="line"/>
      <point x="958" y="830" type="line"/>
      <point x="224" y="830" type="line"/>
      <point x="224" y="1456" type="line"/>
      <point x="170" y="1456" type="line"/>
    </contour>
    <contour>
      <point x="572" y="1612" type="move" name="top"/>
    </contour>
    <contour>
      <point x="1148" y="0" type="move" name="right"/>
    </contour>
    <contour>
      <point x="-168" y="1457" type="move" name="tonos"/>
    </contour>
    <contour>
      <point x="574" y="10" type="move" name="bottom"/>
    </contour>
    <contour>
      <point x="1321" y="1600" type="move" name="top_dd"/>
    </contour>
    <contour>
      <point x="1321" y="-407" type="move" name="bottom_dd"/>
    </contour>
    <contour>
      <point x="1321" y="1612" type="move" name="top0315"/>
    </contour>
  </outline>
</glyph>
<glyph name="I" format="1">
  <advance width="405"/>
  <unicode hex="0049"/>
  <outline>
    <contour>
      <point x="175" y="0" type="line"/>
      <point x="230" y="0" type="line"/>
      <point x="230" y="1456" type="line"/>
      <point x="175" y="1456" type="line"/>
    </contour>
    <contour>
      <point x="200" y="1612" type="move" name="top"/>
    </contour>
    <contour>
      <point x="200" y="9" type="move" name="bottom"/>
    </contour>
    <contour>
      <point x="-101" y="1457" type="move" name="tonos"/>
    </contour>
    <contour>
      <point x="292" y="0" type="move" name="right"/>
    </contour>
    <contour>
      <point x="262" y="0" type="move" name="ogonek"/>
    </contour>
    <contour>
      <point x="478" y="1600" type="move" name="top_dd"/>
    </contour>
    <contour>
      <point x="478" y="-407" type="move" name="bottom_dd"/>
    </contour>
    <contour>
      <point x="478" y="1612" type="move" name="top0315"/>
    </contour>
  </outline>
</glyph>
<glyph name="J" format="1">
  <advance width="852"/>
  <unicode hex="004A"/>
  <outline>
    <contour>
      <point x="24" y="390" type="line" smooth="yes"/>
      <point x="24" y="97"/>
      <point x="173" y="-30"/>
      <point x="360" y="-30" type="curve" smooth="yes"/>
      <point x="549" y="-30"/>
      <point x="696" y="120"/>
      <point x="696" y="425" type="curve" smooth="yes"/>
      <point x="696" y="1456" type="line"/>
      <point x="642" y="1456" type="line"/>
      <point x="642" y="425" type="line" smooth="yes"/>
      <point x="642" y="254"/>
      <point x="528" y="127"/>
      <point x="360" y="127" type="curve" smooth="yes"/>
      <point x="193" y="127"/>
      <point x="79" y="231"/>
      <point x="79" y="390" type="curve" smooth="yes"/>
      <point x="79" y="403" type="line"/>
      <point x="24" y="403" type="line"/>
    </contour>
    <contour>
      <point x="687" y="1599" type="move" name="top"/>
    </contour>
    <contour>
      <point x="347" y="-10" type="move" name="bottom"/>
    </contour>
    <contour>
      <point x="965" y="1600" type="move" name="top_dd"/>
    </contour>
    <contour>
      <point x="965" y="-407" type="move" name="bottom_dd"/>
    </contour>
    <contour>
      <point x="965" y="1599" type="move" name="top0315"/>
    </contour>
  </outline>
</glyph>
<glyph name="M" format="1">
  <advance width="1526"/>
  <unicode hex="004D"/>
  <outline>
    <contour>
      <point x="170" y="0" type="line"/>
      <point x="223" y="0" type="line"/>
      <point x="223" y="1201" type="line" smooth="yes"/>
      <point x="223" y="1212"/>
      <point x="223" y="1280"/>
      <point x="223" y="1280" type="curve"/>
      <point x="231" y="1280" type="line"/>
      <point x="233" y="1271"/>
      <point x="246" y="1230"/>
      <point x="252" y="1216" type="curve" smooth="yes"/>
      <point x="744" y="0" type="line"/>
      <point x="780" y="0" type="line"/>
      <point x="1266" y="1222" type="line" smooth="yes"/>
      <point x="1270" y="1232"/>
      <point x="1284" y="1266"/>
      <point x="1290" y="1280" type="curve"/>
      <point x="1302" y="1280" type="line"/>
      <point x="1302" y="1263"/>
      <point x="1302" y="1232"/>
      <point x="1302" y="1203" type="curve" smooth="yes"/>
      <point x="1302" y="0" type="line"/>
      <point x="1356" y="0" type="line"/>
      <point x="1356" y="1456" type="line"/>
      <point x="1306" y="1456" type="line"/>
      <point x="791" y="163" type="line" smooth="yes"/>
      <point x="784" y="144"/>
      <point x="767" y="101"/>
      <point x="766" y="87" type="curve"/>
      <point x="758" y="87" type="line"/>
      <point x="757" y="101"/>
      <point x="743" y="144"/>
      <point x="735" y="163" type="curve" smooth="yes"/>
      <point x="212" y="1456" type="line"/>
      <point x="170" y="1456" type="line"/>
    </contour>
    <contour>
      <point x="758" y="1601" type="move" name="top"/>
    </contour>
    <contour>
      <point x="1473" y="0" type="move" name="right"/>
    </contour>
    <contour>
      <point x="761" y="10" type="move" name="bottom"/>
    </contour>
    <contour>
      <point x="1656" y="1600" type="move" name="top_dd"/>
    </contour>
    <contour>
      <point x="1656" y="-407" type="move" name="bottom_dd"/>
    </contour>
    <contour>
      <point x="1656" y="1601" type="move" name="top0315"/>
    </contour>
  </outline>
</glyph>
<glyph name="N" format="1">
  <advance width="1191"/>
  <unicode hex="004E"/>
  <outline>
    <contour>
      <point x="954" y="122" type="curve" smooth="yes"/>
      <point x="228" y="1456" type="line"/>
      <point x="170" y="1456" type="line"/>
      <point x="170" y="0" type="line"/>
      <point x="222" y="0" type="line"/>
      <point x="222" y="1325" type="line" smooth="yes"/>
      <point x="222" y="1327"/>
      <point x="222" y="1341"/>
      <point x="222" y="1346" type="curve"/>
      <point x="228" y="1346" type="line"/>
      <point x="230" y="1342"/>
      <point x="237" y="1329"/>
      <point x="239" y="1325" type="curve" smooth="yes"/>
      <point x="960" y="0" type="line"/>
      <point x="1021" y="0" type="line"/>
      <point x="1021" y="1456" type="line"/>
      <point x="968" y="1456" type="line"/>
      <point x="968" y="124" type="line" smooth="yes"/>
      <point x="968" y="119"/>
      <point x="968" y="106"/>
      <point x="968" y="101" type="curve"/>
      <point x="964" y="101" type="line"/>
      <point x="961" y="108"/>
      <point x="956" y="118"/>
    </contour>
    <contour>
      <point x="590" y="1601" type="move" name="top"/>
    </contour>
    <contour>
      <point x="584" y="10" type="move" name="bottom"/>
    </contour>
    <contour>
      <point x="1152" y="0" type="move" name="right"/>
    </contour>
    <contour>
      <point x="1325" y="1600" type="move" name="top_dd"/>
    </contour>
    <contour>
      <point x="1325" y="-407" type="move" name="bottom_dd"/>
    </contour>
    <contour>
      <point x="1325" y="1601" type="move" name="top0315"/>
    </contour>
  </outline>
</glyph>
<glyph name="Q" format="1">
  <advance width="1188"/>
  <unicode hex="0051"/>
  <outline>
    <contour>
      <point x="952" y="-208" type="line"/>
      <point x="1071" y="-84" type="line"/>
      <point x="799" y="169" type="line"/>
      <point x="684" y="42" type="line"/>
    </contour>
    <contour>
      <point x="115" y="682" type="line" smooth="yes"/>
      <point x="115" y="223"/>
      <point x="333" y="-25"/>
      <point x="595" y="-25" type="curve" smooth="yes"/>
      <point x="864" y="-25"/>
      <point x="1073" y="226"/>
      <point x="1073" y="682" type="curve" smooth="yes"/>
      <point x="1073" y="774" type="line" smooth="yes"/>
      <point x="1073" y="1242"/>
      <point x="865" y="1486"/>
      <point x="594" y="1486" type="curve" smooth="yes"/>
      <point x="334" y="1486"/>
      <point x="115" y="1239"/>
      <point x="115" y="774" type="curve" smooth="yes"/>
    </contour>
    <contour>
      <point x="173" y="682" type="curve" smooth="yes"/>
      <point x="173" y="776" type="line" smooth="yes"/>
      <point x="173" y="1113"/>
      <point x="346" y="1322"/>
      <point x="594" y="1322" type="curve" smooth="yes"/>
      <point x="855" y="1322"/>
      <point x="1016" y="1115"/>
      <point x="1016" y="776" type="curve" smooth="yes"/>
      <point x="1016" y="682" type="line" smooth="yes"/>
      <point x="1016" y="354"/>
      <point x="855" y="138"/>
      <point x="595" y="138" type="curve" smooth="yes"/>
      <point x="345" y="138"/>
      <point x="173" y="350"/>
    </contour>
    <contour>
      <point x="567" y="1600" type="move" name="top"/>
    </contour>
    <contour>
      <point x="565" y="-10" type="move" name="bottom"/>
    </contour>
    <contour>
      <point x="1276" y="1600" type="move" name="top_dd"/>
    </contour>
    <contour>
      <point x="1276" y="-407" type="move" name="bottom_dd"/>
    </contour>
    <contour>
      <point x="1276" y="1600" type="move" name="top0315"/>
    </contour>
  </outline>
</glyph>
<glyph name="R" format="1">
  <advance width="963"/>
  <unicode hex="0052"/>
  <outline>
    <contour>
      <point x="863" y="0" type="line"/>
      <point x="922" y="0" type="line"/>
      <point x="922" y="8" type="line"/>
      <point x="574" y="661" type="line"/>
      <point x="511" y="661" type="line"/>
    </contour>
    <contour>
      <point x="170" y="0" type="line"/>
      <point x="225" y="0" type="line"/>
      <point x="225" y="590" type="line"/>
      <point x="567" y="590" type="line"/>
      <point x="768" y="638"/>
      <point x="879" y="773"/>
      <point x="879" y="1019" type="curve" smooth="yes"/>
      <point x="879" y="1320"/>
      <point x="740" y="1456"/>
      <point x="500" y="1456" type="curve" smooth="yes"/>
      <point x="170" y="1456" type="line"/>
    </contour>
    <contour>
      <point x="225" y="747" type="line"/>
      <point x="225" y="1298" type="line"/>
      <point x="500" y="1298" type="line" smooth="yes"/>
      <point x="728" y="1298"/>
      <point x="825" y="1166"/>
      <point x="825" y="1019" type="curve" smooth="yes"/>
      <point x="825" y="889"/>
      <point x="720" y="747"/>
      <point x="505" y="747" type="curve" smooth="yes"/>
    </contour>
    <contour>
      <point x="486" y="1601" type="move" name="top"/>
    </contour>
    <contour>
      <point x="487" y="10" type="move" name="bottom"/>
    </contour>
    <contour>
      <point x="1138" y="1600" type="move" name="top_dd"/>
    </contour>
    <contour>
      <point x="1138" y="-407" type="move" name="bottom_dd"/>
    </contour>
    <contour>
      <point x="1138" y="1601" type="move" name="top0315"/>
    </contour>
  </outline>
</glyph>
<glyph name="S" format="1">
  <advance width="949"/>
  <unicode hex="0053"/>
  <outline>
    <contour>
      <point x="88" y="393" type="line" smooth="yes"/>
      <point x="88" y="97"/>
      <point x="253" y="-30"/>
      <point x="491" y="-30" type="curve" smooth="yes"/>
      <point x="720" y="-30"/>
      <point x="874" y="113"/>
      <point x="874" y="380" type="curve" smooth="yes"/>
      <point x="874" y="647"/>
      <point x="763" y="752"/>
      <point x="523" y="834" type="curve" smooth="yes"/>
      <point x="249" y="928"/>
      <point x="170" y="987"/>
      <point x="170" y="1098" type="curve" smooth="yes"/>
      <point x="170" y="1207"/>
      <point x="258" y="1321"/>
      <point x="472" y="1321" type="curve" smooth="yes"/>
      <point x="690" y="1321"/>
      <point x="796" y="1208"/>
      <point x="796" y="1070" type="curve" smooth="yes"/>
      <point x="796" y="1056" type="line"/>
      <point x="850" y="1056" type="line"/>
      <point x="850" y="1071" type="line" smooth="yes"/>
      <point x="850" y="1313"/>
      <point x="723" y="1486"/>
      <point x="480" y="1486" type="curve" smooth="yes"/>
      <point x="264" y="1486"/>
      <point x="115" y="1324"/>
      <point x="115" y="1080" type="curve" smooth="yes"/>
      <point x="115" y="840"/>
      <point x="219" y="740"/>
      <point x="473" y="653" type="curve" smooth="yes"/>
      <point x="749" y="558"/>
      <point x="819" y="496"/>
      <point x="819" y="368" type="curve" smooth="yes"/>
      <point x="819" y="210"/>
      <point x="702" y="130"/>
      <point x="481" y="130" type="curve" smooth="yes"/>
      <point x="270" y="130"/>
      <point x="142" y="236"/>
      <point x="142" y="398" type="curve" smooth="yes"/>
      <point x="142" y="405" type="line"/>
      <point x="88" y="405" type="line"/>
    </contour>
    <contour>
      <point x="490" y="1603" type="move" name="top"/>
    </contour>
    <contour>
      <point x="496" y="-1" type="move" name="bottom"/>
    </contour>
    <contour>
      <point x="1084" y="1600" type="move" name="top_dd"/>
    </contour>
    <contour>
      <point x="1084" y="-407" type="move" name="bottom_dd"/>
    </contour>
    <contour>
      <point x="1084" y="1603" type="move" name="top0315"/>
    </contour>
  </outline>
</glyph>
<glyph name="T" format="1">
  <advance width="896"/>
  <unicode hex="0054"/>
  <outline>
    <contour>
      <point x="24" y="1298" type="line"/>
      <point x="422" y="1298" type="line"/>
      <point x="422" y="0" type="line"/>
      <point x="474" y="0" type="line"/>
      <point x="474" y="1298" type="line"/>
      <point x="872" y="1298" type="line"/>
      <point x="872" y="1456" type="line"/>
      <point x="24" y="1456" type="line"/>
    </contour>
    <contour>
      <point x="449" y="1600" type="move" name="top"/>
    </contour>
    <contour>
      <point x="451" y="0" type="move" name="bottom"/>
    </contour>
    <contour>
      <point x="540" y="0" type="move" name="right"/>
    </contour>
    <contour>
      <point x="454" y="895" type="move" name="cross"/>
    </contour>
    <contour>
      <point x="1059" y="1600" type="move" name="top_dd"/>
    </contour>
    <contour>
      <point x="1059" y="-407" type="move" name="bottom_dd"/>
    </contour>
    <contour>
      <point x="1059" y="1600" type="move" name="top0315"/>
    </contour>
  </outline>
</glyph>
<glyph name="U" format="1">
  <advance width="1051"/>
  <unicode hex="0055"/>
  <outline>
    <contour>
      <point x="132" y="471" type="line" smooth="yes"/>
      <point x="132" y="128"/>
      <point x="309" y="-30"/>
      <point x="524" y="-30" type="curve" smooth="yes"/>
      <point x="727" y="-30"/>
      <point x="919" y="128"/>
      <point x="919" y="471" type="curve" smooth="yes"/>
      <point x="919" y="1456" type="line"/>
      <point x="865" y="1456" type="line"/>
      <point x="865" y="471" type="line" smooth="yes"/>
      <point x="865" y="259"/>
      <point x="733" y="137"/>
      <point x="524" y="137" type="curve" smooth="yes"/>
      <point x="317" y="137"/>
      <point x="186" y="259"/>
      <point x="186" y="471" type="curve" smooth="yes"/>
      <point x="186" y="1456" type="line"/>
      <point x="132" y="1456" type="line"/>
    </contour>
    <contour>
      <point x="528" y="1601" type="move" name="top"/>
    </contour>
    <contour>
      <point x="527" y="0" type="move" name="bottom"/>
    </contour>
    <contour>
      <point x="695" y="0" type="move" name="right"/>
    </contour>
    <contour>
      <point x="802" y="44" type="move" name="ogonek"/>
    </contour>
    <contour>
      <point x="1189" y="1600" type="move" name="top_dd"/>
    </contour>
    <contour>
      <point x="1189" y="-407" type="move" name="bottom_dd"/>
    </contour>
    <contour>
      <point x="1189" y="1601" type="move" name="top0315"/>
    </contour>
  </outline>
</glyph>
<glyph name="V" format="1">
  <advance width="1166"/>
  <unicode hex="0056"/>
  <outline>
    <contour>
      <point x="28" y="1456" type="line"/>
      <point x="555" y="-10" type="line"/>
      <point x="610" y="-10" type="line"/>
      <point x="1138" y="1456" type="line"/>
      <point x="1082" y="1456" type="line"/>
      <point x="596" y="106" type="line" smooth="yes"/>
      <point x="594" y="100"/>
      <point x="588" y="84"/>
      <point x="588" y="80" type="curve"/>
      <point x="578" y="80" type="line"/>
      <point x="578" y="84"/>
      <point x="572" y="100"/>
      <point x="570" y="106" type="curve" smooth="yes"/>
      <point x="85" y="1456" type="line"/>
    </contour>
    <contour>
      <point x="586" y="1612" type="move" name="top"/>
    </contour>
    <contour>
      <point x="586" y="10" type="move" name="bottom"/>
    </contour>
    <contour>
      <point x="1235" y="1600" type="move" name="top_dd"/>
    </contour>
    <contour>
      <point x="1235" y="-407" type="move" name="bottom_dd"/>
    </contour>
    <contour>
      <point x="1235" y="1612" type="move" name="top0315"/>
    </contour>
  </outline>
</glyph>
<glyph name="b" format="1">
  <advance width="901"/>
  <unicode hex="0062"/>
  <outline>
    <contour>
      <point x="148" y="0" type="line"/>
      <point x="194" y="0" type="line"/>
      <point x="198" y="214" type="line"/>
      <point x="252" y="76"/>
      <point x="356" y="-15"/>
      <point x="494" y="-15" type="curve" smooth="yes"/>
      <point x="690" y="-15"/>
      <point x="816" y="194"/>
      <point x="816" y="529" type="curve" smooth="yes"/>
      <point x="816" y="550" type="line" smooth="yes"/>
      <point x="816" y="891"/>
      <point x="692" y="1082"/>
      <point x="510" y="1082" type="curve" smooth="yes"/>
      <point x="363" y="1082"/>
      <point x="256" y="991"/>
      <point x="201" y="870" type="curve"/>
      <point x="201" y="1536" type="line"/>
      <point x="148" y="1536" type="line"/>
    </contour>
    <contour>
      <point x="199" y="308" type="curve"/>
      <point x="199" y="753" type="line"/>
      <point x="238" y="858"/>
      <point x="324" y="926"/>
      <point x="479" y="926" type="curve" smooth="yes"/>
      <point x="689" y="926"/>
      <point x="762" y="755"/>
      <point x="762" y="550" type="curve" smooth="yes"/>
      <point x="762" y="529" type="line" smooth="yes"/>
      <point x="762" y="317"/>
      <point x="681" y="142"/>
      <point x="481" y="142" type="curve" smooth="yes"/>
      <point x="329" y="142"/>
      <point x="244" y="214"/>
    </contour>
    <contour>
      <point x="507" y="1611" type="move" name="top"/>
    </contour>
    <contour>
      <point x="471" y="-10" type="move" name="bottom"/>
    </contour>
    <contour>
      <point x="1023" y="1600" type="move" name="top_dd"/>
    </contour>
    <contour>
      <point x="1023" y="-407" type="move" name="bottom_dd"/>
    </contour>
    <contour>
      <point x="1023" y="1611" type="move" name="top0315"/>
    </contour>
  </outline>
</glyph>
<glyph name="d" format="1">
  <advance width="898"/>
  <unicode hex="0064"/>
  <outline>
    <contour>
      <point x="85" y="518" type="line" smooth="yes"/>
      <point x="85" y="187"/>
      <point x="234" y="-20"/>
      <point x="403" y="-20" type="curve" smooth="yes"/>
      <point x="539" y="-20"/>
      <point x="644" y="87"/>
      <point x="697" y="247" type="curve"/>
      <point x="706" y="0" type="line"/>
      <point x="750" y="0" type="line"/>
      <point x="750" y="1536" type="line"/>
      <point x="697" y="1536" type="line"/>
      <point x="697" y="850" type="line"/>
      <point x="646" y="949"/>
      <point x="558" y="1077"/>
      <point x="420" y="1077" type="curve" smooth="yes"/>
      <point x="242" y="1077"/>
      <point x="85" y="883"/>
      <point x="85" y="538" type="curve" smooth="yes"/>
    </contour>
    <contour>
      <point x="138" y="521" type="curve" smooth="yes"/>
      <point x="138" y="542" type="line" smooth="yes"/>
      <point x="138" y="747"/>
      <point x="230" y="925"/>
      <point x="422" y="925" type="curve" smooth="yes"/>
      <point x="569" y="925"/>
      <point x="659" y="840"/>
      <point x="697" y="748" type="curve"/>
      <point x="697" y="335" type="line"/>
      <point x="652" y="223"/>
      <point x="570" y="137"/>
      <point x="419" y="137" type="curve" smooth="yes"/>
      <point x="220" y="137"/>
      <point x="138" y="310"/>
    </contour>
    <contour>
      <point x="978" y="1536" type="move" name="caron"/>
    </contour>
    <contour>
      <point x="738" y="1306" type="move" name="cross"/>
    </contour>
    <contour>
      <point x="480" y="0" type="move" name="bottom"/>
    </contour>
    <contour>
      <point x="412" y="1612" type="move" name="top"/>
    </contour>
    <contour>
      <point x="1018" y="1600" type="move" name="top_dd"/>
    </contour>
    <contour>
      <point x="1018" y="-407" type="move" name="bottom_dd"/>
    </contour>
    <contour>
      <point x="1018" y="1612" type="move" name="top0315"/>
    </contour>
  </outline>
</glyph>
<glyph name="f" format="1">
  <advance width="379"/>
  <unicode hex="0066"/>
  <outline>
    <contour>
      <point x="163" y="0" type="line"/>
      <point x="217" y="0" type="line"/>
      <point x="217" y="974" type="line"/>
      <point x="217" y="1004" type="line"/>
      <point x="217" y="1196" type="line" smooth="yes"/>
      <point x="217" y="1309"/>
      <point x="285" y="1399"/>
      <point x="414" y="1399" type="curve" smooth="yes"/>
      <point x="424" y="1399"/>
      <point x="439" y="1399"/>
      <point x="448" y="1398" type="curve"/>
      <point x="457" y="1545" type="line"/>
      <point x="445" y="1551"/>
      <point x="423" y="1557"/>
      <point x="400" y="1557" type="curve" smooth="yes"/>
      <point x="256" y="1557"/>
      <point x="163" y="1446"/>
      <point x="163" y="1196" type="curve" smooth="yes"/>
    </contour>
    <contour>
      <point x="26" y="910" type="line"/>
      <point x="400" y="910" type="line"/>
      <point x="400" y="1052" type="line"/>
      <point x="208" y="1052" type="line"/>
      <point x="182" y="1052" type="line"/>
      <point x="26" y="1052" type="line"/>
    </contour>
    <contour>
      <point x="365" y="1754" type="move" name="top"/>
    </contour>
    <contour>
      <point x="193" y="10" type="move" name="bottom"/>
    </contour>
    <contour>
      <point x="575" y="1600" type="move" name="top_dd"/>
    </contour>
    <contour>
      <point x="575" y="-407" type="move" name="bottom_dd"/>
    </contour>
    <contour>
      <point x="575" y="1754" type="move" name="top0315"/>
    </contour>
  </outline>
</glyph>
<glyph name="h" format="1">
  <advance width="872"/>
  <unicode hex="0068"/>
  <outline>
    <contour>
      <point x="148" y="0" type="line"/>
      <point x="202" y="0" type="line"/>
      <point x="202" y="746" type="line"/>
      <point x="252" y="844"/>
      <point x="344" y="916"/>
      <point x="460" y="916" type="curve" smooth="yes"/>
      <point x="604" y="916"/>
      <point x="680" y="850"/>
      <point x="680" y="681" type="curve" smooth="yes"/>
      <point x="680" y="0" type="line"/>
      <point x="734" y="0" type="line"/>
      <point x="734" y="679" type="line" smooth="yes"/>
      <point x="734" y="978"/>
      <point x="647" y="1072"/>
      <point x="504" y="1072" type="curve" smooth="yes"/>
      <point x="349" y="1072"/>
      <point x="227" y="933"/>
      <point x="202" y="838" type="curve"/>
      <point x="202" y="1536" type="line"/>
      <point x="148" y="1536" type="line"/>
    </contour>
    <contour>
      <point x="373" y="1611" type="move" name="top"/>
    </contour>
    <contour>
      <point x="158" y="1306" type="move" name="cross"/>
    </contour>
    <contour>
      <point x="460" y="10" type="move" name="bottom"/>
    </contour>
    <contour>
      <point x="864" y="0" type="move" name="right"/>
    </contour>
    <contour>
      <point x="1000" y="1600" type="move" name="top_dd"/>
    </contour>
    <contour>
      <point x="1000" y="-407" type="move" name="bottom_dd"/>
    </contour>
    <contour>
      <point x="1000" y="1611" type="move" name="top0315"/>
    </contour>
  </outline>
</glyph>
<glyph name="i" format="1">
  <advance width="361"/>
  <unicode hex="0069"/>
  <outline>
    <contour>
      <point x="152" y="0" type="line"/>
      <point x="206" y="0" type="line"/>
      <point x="206" y="1052" type="line"/>
      <point x="152" y="1052" type="line"/>
    </contour>
    <contour>
      <point x="140" y="1369" type="curve" smooth="yes"/>
      <point x="140" y="1291"/>
      <point x="157" y="1265"/>
      <point x="180" y="1265" type="curve"/>
      <point x="203" y="1265"/>
      <point x="221" y="1292"/>
      <point x="221" y="1369" type="curve"/>
      <point x="221" y="1448"/>
      <point x="203" y="1476"/>
      <point x="180" y="1476" type="curve"/>
      <point x="157" y="1476"/>
      <point x="140" y="1449"/>
    </contour>
    <contour>
      <point x="178" y="10" type="move" name="bottom"/>
    </contour>
    <contour>
      <point x="255" y="0" type="move" name="ogonek"/>
    </contour>
    <contour>
      <point x="180" y="1600" type="move" name="top"/>
    </contour>
    <contour>
      <point x="427" y="1600" type="move" name="top_dd"/>
    </contour>
    <contour>
      <point x="427" y="-407" type="move" name="bottom_dd"/>
    </contour>
    <contour>
      <point x="206" y="654" type="move" name="rhotichook"/>
    </contour>
    <contour>
      <point x="427" y="1600" type="move" name="top0315"/>
    </contour>
  </outline>
</glyph>
<glyph name="j" format="1">
  <advance width="331"/>
  <unicode hex="006A"/>
  <outline>
    <contour>
      <point x="-105" y="-416" type="line"/>
      <point x="-83" y="-424"/>
      <point x="-35" y="-437"/>
      <point x="5" y="-437" type="curve" smooth="yes"/>
      <point x="113" y="-437"/>
      <point x="175" y="-347"/>
      <point x="175" y="-76" type="curve" smooth="yes"/>
      <point x="175" y="1052" type="line"/>
      <point x="121" y="1052" type="line"/>
      <point x="121" y="-129" type="line" smooth="yes"/>
      <point x="121" y="-223"/>
      <point x="71" y="-280"/>
      <point x="-27" y="-280" type="curve" smooth="yes"/>
      <point x="-44" y="-280"/>
      <point x="-83" y="-281"/>
      <point x="-105" y="-279" type="curve"/>
    </contour>
    <contour>
      <point x="106" y="1369" type="curve" smooth="yes"/>
      <point x="106" y="1291"/>
      <point x="123" y="1265"/>
      <point x="146" y="1265" type="curve" smooth="yes"/>
      <point x="169" y="1265"/>
      <point x="187" y="1291"/>
      <point x="187" y="1369" type="curve" smooth="yes"/>
      <point x="187" y="1449"/>
      <point x="169" y="1476"/>
      <point x="146" y="1476" type="curve" smooth="yes"/>
      <point x="123" y="1476"/>
      <point x="106" y="1449"/>
    </contour>
    <contour>
      <point x="131" y="1600" type="move" name="top"/>
    </contour>
    <contour>
      <point x="98" y="-459" type="move" name="bottom"/>
    </contour>
    <contour>
      <point x="398" y="1600" type="move" name="top_dd"/>
    </contour>
    <contour>
      <point x="398" y="-407" type="move" name="bottom_dd"/>
    </contour>
    <contour>
      <point x="398" y="1600" type="move" name="top0315"/>
    </contour>
  </outline>
</glyph>
<glyph name="k" format="1">
  <advance width="818"/>
  <unicode hex="006B"/>
  <outline>
    <contour>
      <point x="765" y="0" type="line"/>
      <point x="834" y="0" type="line"/>
      <point x="362" y="627" type="line"/>
      <point x="328" y="582" type="line"/>
    </contour>
    <contour>
      <point x="144" y="0" type="line"/>
      <point x="198" y="0" type="line"/>
      <point x="198" y="413" type="line"/>
      <point x="780" y="1052" type="line"/>
      <point x="709" y="1052" type="line"/>
      <point x="355" y="663" type="line" smooth="yes"/>
      <point x="312" y="615"/>
      <point x="216" y="516"/>
      <point x="198" y="482" type="curve"/>
      <point x="198" y="1536" type="line"/>
      <point x="144" y="1536" type="line"/>
    </contour>
    <contour>
      <point x="395" y="71" type="move" name="bottom"/>
    </contour>
    <contour>
      <point x="116" y="1289" type="move" name="cross"/>
    </contour>
    <contour>
      <point x="415" y="1611" type="move" name="top"/>
    </contour>
    <contour>
      <point x="415" y="1611" type="move" name="marktop"/>
    </contour>
    <contour>
      <point x="904" y="1600" type="move" name="top_dd"/>
    </contour>
    <contour>
      <point x="904" y="-407" type="move" name="bottom_dd"/>
    </contour>
    <contour>
      <point x="774" y="1611" type="move" name="top0315"/>
    </contour>
  </outline>
</glyph>
<glyph name="q" format="1">
  <advance width="888"/>
  <unicode hex="0071"/>
  <outline>
    <contour>
      <point x="85" y="519" type="line" smooth="yes"/>
      <point x="85" y="188"/>
      <point x="237" y="-20"/>
      <point x="404" y="-20" type="curve" smooth="yes"/>
      <point x="539" y="-20"/>
      <point x="644" y="86"/>
      <point x="696" y="247" type="curve"/>
      <point x="696" y="-416" type="line"/>
      <point x="750" y="-416" type="line"/>
      <point x="750" y="1052" type="line"/>
      <point x="703" y="1052" type="line"/>
      <point x="696" y="850" type="line"/>
      <point x="646" y="949"/>
      <point x="559" y="1077"/>
      <point x="420" y="1077" type="curve" smooth="yes"/>
      <point x="242" y="1077"/>
      <point x="85" y="883"/>
      <point x="85" y="539" type="curve" smooth="yes"/>
    </contour>
    <contour>
      <point x="138" y="518" type="curve" smooth="yes"/>
      <point x="138" y="539" type="line" smooth="yes"/>
      <point x="138" y="747"/>
      <point x="232" y="925"/>
      <point x="421" y="925" type="curve"/>
      <point x="571" y="925"/>
      <point x="658" y="839"/>
      <point x="696" y="748" type="curve"/>
      <point x="696" y="335" type="line"/>
      <point x="652" y="223"/>
      <point x="571" y="136"/>
      <point x="419" y="136" type="curve" smooth="yes"/>
      <point x="220" y="136"/>
      <point x="138" y="311"/>
    </contour>
    <contour>
      <point x="397" y="1290" type="move" name="top"/>
    </contour>
    <contour>
      <point x="776" y="-407" type="move" name="bottom"/>
    </contour>
    <contour>
      <point x="397" y="1290" type="move" name="marktop"/>
    </contour>
    <contour>
      <point x="1024" y="1600" type="move" name="top_dd"/>
    </contour>
    <contour>
      <point x="1024" y="-407" type="move" name="bottom_dd"/>
    </contour>
    <contour>
      <point x="1024" y="1290" type="move" name="top0315"/>
    </contour>
  </outline>
</glyph>
<glyph name="t" format="1">
  <advance width="435"/>
  <unicode hex="0074"/>
  <outline>
    <contour>
      <point x="0" y="910" type="line"/>
      <point x="387" y="910" type="line"/>
      <point x="387" y="1052" type="line"/>
      <point x="0" y="1052" type="line"/>
    </contour>
    <contour>
      <point x="151" y="260" type="line" smooth="yes"/>
      <point x="151" y="52"/>
      <point x="226" y="-29"/>
      <point x="303" y="-29" type="curve" smooth="yes"/>
      <point x="325" y="-29"/>
      <point x="372" y="-15"/>
      <point x="384" y="-8" type="curve"/>
      <point x="384" y="132" type="line"/>
      <point x="374" y="131"/>
      <point x="355" y="130"/>
      <point x="347" y="130" type="curve" smooth="yes"/>
      <point x="266" y="130"/>
      <point x="204" y="168"/>
      <point x="204" y="269" type="curve" smooth="yes"/>
      <point x="204" y="1315" type="line"/>
      <point x="151" y="1315" type="line"/>
      <point x="151" y="1000" type="line"/>
      <point x="151" y="967" type="line"/>
    </contour>
    <contour>
      <point x="322" y="0" type="move" name="bottom"/>
    </contour>
    <contour>
      <point x="408" y="1656" type="move" name="caron"/>
    </contour>
    <contour>
      <point x="172" y="675" type="move" name="cross"/>
    </contour>
    <contour>
      <point x="181" y="1481" type="move" name="top"/>
    </contour>
    <contour>
      <point x="438" y="1358" type="move" name="marktop"/>
    </contour>
    <contour>
      <point x="539" y="1600" type="move" name="top_dd"/>
    </contour>
    <contour>
      <point x="539" y="-407" type="move" name="bottom_dd"/>
    </contour>
    <contour>
      <point x="539" y="1481" type="move" name="top0315"/>
    </contour>
  </outline>
</glyph>
<glyph name="u" format="1">
  <advance width="873"/>
  <unicode hex="0075"/>
  <outline>
    <contour>
      <point x="138" y="362" type="line" smooth="yes"/>
      <point x="138" y="59"/>
      <point x="238" y="-24"/>
      <point x="374" y="-24" type="curve" smooth="yes"/>
      <point x="495" y="-24"/>
      <point x="618" y="77"/>
      <point x="670" y="217" type="curve"/>
      <point x="673" y="0" type="line"/>
      <point x="725" y="0" type="line"/>
      <point x="725" y="1052" type="line"/>
      <point x="671" y="1052" type="line"/>
      <point x="671" y="288" type="line"/>
      <point x="610" y="179"/>
      <point x="536" y="133"/>
      <point x="398" y="133" type="curve" smooth="yes"/>
      <point x="251" y="133"/>
      <point x="191" y="226"/>
      <point x="191" y="360" type="curve" smooth="yes"/>
      <point x="191" y="1052" type="line"/>
      <point x="138" y="1052" type="line"/>
    </contour>
    <contour>
      <point x="434" y="1290" type="move" name="top"/>
    </contour>
    <contour>
      <point x="846" y="0" type="move" name="ogonek"/>
    </contour>
    <contour>
      <point x="376" y="0" type="move" name="bottomu"/>
    </contour>
    <contour>
      <point x="996" y="1600" type="move" name="top_dd"/>
    </contour>
    <contour>
      <point x="996" y="-407" type="move" name="bottom_dd"/>
    </contour>
    <contour>
      <point x="787" y="654" type="move" name="rhotichook"/>
    </contour>
    <contour>
      <point x="996" y="1290" type="move" name="top0315"/>
    </contour>
    <contour>
      <point x="430" y="0" type="move" name="bottom"/>
    </contour>
  </outline>
</glyph>
<glyph name="v" format="1">
  <advance width="831"/>
  <unicode hex="0076"/>
  <outline>
    <contour>
      <point x="0" y="1052" type="line"/>
      <point x="402" y="-10" type="line"/>
      <point x="437" y="-10" type="line"/>
      <point x="831" y="1050" type="line"/>
      <point x="776" y="1051" type="line"/>
      <point x="522" y="367" type="line" smooth="yes"/>
      <point x="487" y="272"/>
      <point x="445" y="161"/>
      <point x="425" y="75" type="curve"/>
      <point x="417" y="75" type="line"/>
      <point x="391" y="162"/>
      <point x="348" y="279"/>
      <point x="315" y="367" type="curve" smooth="yes"/>
      <point x="57" y="1052" type="line"/>
    </contour>
    <contour>
      <point x="453" y="1280" type="move" name="top"/>
    </contour>
    <contour>
      <point x="452" y="10" type="move" name="bottom"/>
    </contour>
    <contour>
      <point x="940" y="1600" type="move" name="top_dd"/>
    </contour>
    <contour>
      <point x="940" y="-407" type="move" name="bottom_dd"/>
    </contour>
    <contour>
      <point x="940" y="1280" type="move" name="top0315"/>
    </contour>
  </outline>
</glyph>
<glyph name="w" format="1">
  <advance width="1402"/>
  <unicode hex="0077"/>
  <outline>
    <contour>
      <point x="24" y="1052" type="line"/>
      <point x="343" y="-10" type="line"/>
      <point x="385" y="-10" type="line"/>
      <point x="600" y="657" type="line" smooth="yes"/>
      <point x="616" y="708"/>
      <point x="692" y="945"/>
      <point x="693" y="963" type="curve"/>
      <point x="700" y="963" type="line"/>
      <point x="701" y="945"/>
      <point x="786" y="710"/>
      <point x="804" y="659" type="curve" smooth="yes"/>
      <point x="1038" y="-10" type="line"/>
      <point x="1078" y="-10" type="line"/>
      <point x="1378" y="1052" type="line"/>
      <point x="1325" y="1052" type="line"/>
      <point x="1133" y="371" type="line" smooth="yes"/>
      <point x="1118" y="318"/>
      <point x="1060" y="116"/>
      <point x="1060" y="92" type="curve"/>
      <point x="1052" y="92" type="line"/>
      <point x="1051" y="117"/>
      <point x="976" y="319"/>
      <point x="958" y="370" type="curve" smooth="yes"/>
      <point x="719" y="1052" type="line"/>
      <point x="676" y="1052" type="line"/>
      <point x="444" y="333" type="line" smooth="yes"/>
      <point x="438" y="316"/>
      <point x="373" y="106"/>
      <point x="373" y="92" type="curve"/>
      <point x="365" y="92" type="line"/>
      <point x="364" y="105"/>
      <point x="299" y="316"/>
      <point x="282" y="372" type="curve" smooth="yes"/>
      <point x="80" y="1052" type="line"/>
    </contour>
    <contour>
      <point x="703" y="1290" type="move" name="top"/>
    </contour>
    <contour>
      <point x="706" y="10" type="move" name="bottom"/>
    </contour>
    <contour>
      <point x="703" y="1290" type="move" name="marktop"/>
    </contour>
    <contour>
      <point x="1479" y="1600" type="move" name="top_dd"/>
    </contour>
    <contour>
      <point x="1479" y="-407" type="move" name="bottom_dd"/>
    </contour>
    <contour>
      <point x="1479" y="1290" type="move" name="top0315"/>
    </contour>
  </outline>
</glyph>
<glyph name="x" format="1">
  <advance width="817"/>
  <unicode hex="0078"/>
  <outline>
    <contour>
      <point x="24.0" y="0.0" type="line"/>
      <point x="86.0" y="0.0" type="line"/>
      <point x="420.0" y="506.0" type="line"/>
      <point x="427.0" y="517.0" type="line"/>
      <point x="779.0" y="1052.0" type="line"/>
      <point x="718.0" y="1052.0" type="line"/>
      <point x="392.0" y="558.0" type="line"/>
      <point x="386.0" y="548.0" type="line"/>
    </contour>
    <contour>
      <point x="36.0" y="1052.0" type="line"/>
      <point x="388.0" y="517.0" type="line"/>
      <point x="397.0" y="504.0" type="line"/>
      <point x="728.0" y="0.0" type="line"/>
      <point x="793.0" y="0.0" type="line"/>
      <point x="429.0" y="554.0" type="line"/>
      <point x="424.0" y="562.0" type="line"/>
      <point x="101.0" y="1052.0" type="line"/>
    </contour>
    <contour>
      <point x="414" y="10" type="move" name="bottom"/>
    </contour>
    <contour>
      <point x="771" y="0" type="move" name="right"/>
    </contour>
    <contour>
      <point x="410" y="553" type="move" name="cross"/>
    </contour>
    <contour>
      <point x="411" y="1280" type="move" name="top"/>
    </contour>
    <contour>
      <point x="919" y="1600" type="move" name="top_dd"/>
    </contour>
    <contour>
      <point x="919" y="-407" type="move" name="bottom_dd"/>
    </contour>
    <contour>
      <point x="919" y="1280" type="move" name="top0315"/>
    </contour>
  </outline>
</glyph>
<glyph name="y" format="1">
  <advance width="820"/>
  <unicode hex="0079"/>
  <outline>
    <contour>
      <point x="65" y="-423" type="line"/>
      <point x="83" y="-429"/>
      <point x="141" y="-437"/>
      <point x="184" y="-437" type="curve" smooth="yes"/>
      <point x="312" y="-437"/>
      <point x="359" y="-291"/>
      <point x="395" y="-187" type="curve" smooth="yes"/>
      <point x="820" y="1052" type="line"/>
      <point x="766" y="1052" type="line"/>
      <point x="531" y="366" type="line" smooth="yes"/>
      <point x="512" y="312"/>
      <point x="454" y="160"/>
      <point x="434" y="75" type="curve"/>
      <point x="426" y="75" type="line"/>
      <point x="401" y="162"/>
      <point x="358" y="278"/>
      <point x="325" y="366" type="curve" smooth="yes"/>
      <point x="65" y="1052" type="line"/>
      <point x="8" y="1052" type="line"/>
      <point x="406" y="11" type="line"/>
      <point x="380" y="-78" type="line" smooth="yes"/>
      <point x="341" y="-224"/>
      <point x="281" y="-275"/>
      <point x="171" y="-275" type="curve" smooth="yes"/>
      <point x="132" y="-275"/>
      <point x="78" y="-270"/>
      <point x="65" y="-266" type="curve"/>
    </contour>
    <contour>
      <point x="453" y="1290" type="move" name="top"/>
    </contour>
    <contour>
      <point x="657" y="-158" type="move" name="bottom"/>
    </contour>
    <contour>
      <point x="453" y="1290" type="move" name="marktop"/>
    </contour>
    <contour>
      <point x="914" y="1600" type="move" name="top_dd"/>
    </contour>
    <contour>
      <point x="914" y="-407" type="move" name="bottom_dd"/>
    </contour>
    <contour>
      <point x="683" y="654" type="move" name="rhotichook"/>
    </contour>
    <contour>
      <point x="914" y="1290" type="move" name="top0315"/>
    </contour>
  </outline>
</glyph>
<glyph name="z" format="1">
  <advance width="842"/>
  <unicode hex="007A"/>
  <outline>
    <contour>
      <point x="68" y="0" type="line"/>
      <point x="780" y="0" type="line"/>
      <point x="780" y="152" type="line"/>
      <point x="163" y="152" type="line"/>
      <point x="746" y="901" type="line"/>
      <point x="746" y="1052" type="line"/>
      <point x="74" y="1052" type="line"/>
      <point x="74" y="899" type="line"/>
      <point x="647" y="899" type="line"/>
      <point x="68" y="156" type="line"/>
    </contour>
    <contour>
      <point x="421" y="1290" type="move" name="top"/>
    </contour>
    <contour>
      <point x="432" y="10" type="move" name="bottom"/>
    </contour>
    <contour>
      <point x="922" y="1600" type="move" name="top_dd"/>
    </contour>
    <contour>
      <point x="922" y="-407" type="move" name="bottom_dd"/>
    </contour>
    <contour>
      <point x="922" y="1290" type="move" name="top0315"/>
    </contour>
  </outline>
</glyph>
<glyph name="braceright" format="1">
  <advance width="693"/>
  <unicode hex="007D"/>
  <outline>
    <contour>
      <point x="417" y="335" type="line" smooth="yes"/>
      <point x="383" y="478"/>
      <point x="479" y="513"/>
      <point x="629" y="513" type="curve"/>
      <point x="629" y="645" type="line"/>
      <point x="479" y="645"/>
      <point x="382" y="680"/>
      <point x="417" y="823" type="curve" smooth="yes"/>
      <point x="467" y="1025" type="line" smooth="yes"/>
      <point x="518" y="1231"/>
      <point x="298" y="1460"/>
      <point x="22" y="1460" type="curve"/>
      <point x="22" y="1315" type="line"/>
      <point x="207" y="1315"/>
      <point x="321" y="1187"/>
      <point x="281" y="1025" type="curve" smooth="yes"/>
      <point x="231" y="823" type="line" smooth="yes"/>
      <point x="203" y="710"/>
      <point x="250" y="617"/>
      <point x="381" y="579" type="curve"/>
      <point x="251" y="548"/>
      <point x="204" y="448"/>
      <point x="231" y="335" type="curve" smooth="yes"/>
      <point x="281" y="123" type="line" smooth="yes"/>
      <point x="319" y="-39"/>
      <point x="207" y="-166"/>
      <point x="22" y="-166" type="curve"/>
      <point x="22" y="-312" type="line"/>
      <point x="298" y="-312"/>
      <point x="516" y="-84"/>
      <point x="467" y="123" type="curve" smooth="yes"/>
    </contour>
  </outline>
</glyph>
